ply
format ascii 1.0
element vertex 279
property float x
property float y
property float z
property float opacity
property float scale_0
property float scale_1
property float scale_2
property float rot_0
property float rot_1
property float rot_2
property float rot_3
property float f_dc_0
property float f_dc_1
property float f_dc_2
end_header
-4.247965 -5.028828 0.007100 1.433845 -3.912023 -3.912023 -3.912023 1.000000 0.000000 0.000000 0.000000 -0.737214 -1.062531 -0.666522
-2.705793 -5.012276 0.003071 1.192866 -3.912023 -3.912023 -3.912023 1.000000 0.000000 0.000000 0.000000 -0.438040 -1.059619 -0.670610
-1.938478 -4.996830 0.005032 1.314872 -3.912023 -3.912023 -3.912023 1.000000 0.000000 0.000000 0.000000 -0.289184 -1.056902 -0.668620
-1.164986 -4.971737 -0.008570 1.987402 -3.912023 -3.912023 -3.912023 1.000000 0.000000 0.000000 0.000000 -0.139130 -1.052489 -0.682423
-0.380507 -5.008088 0.009997 1.921204 -3.912023 -3.912023 -3.912023 1.000000 0.000000 0.000000 0.000000 0.013055 -1.058883 -0.663582
1.943841 -5.011273 -0.014701 1.279384 -3.912023 -3.912023 -3.912023 1.000000 0.000000 0.000000 0.000000 0.463969 -1.059443 -0.688645
2.663531 -4.976503 0.018544 2.383742 -3.912023 -3.912023 -3.912023 1.000000 0.000000 0.000000 0.000000 0.603585 -1.053327 -0.654908
4.237733 -5.003132 -0.004406 1.202967 -3.912023 -3.912023 -3.912023 1.000000 0.000000 0.000000 0.000000 0.908973 -1.058011 -0.678197
-4.240538 -4.247602 -0.011207 1.056909 -3.912023 -3.912023 -3.912023 1.000000 0.000000 0.000000 0.000000 -0.735773 -0.925116 -0.685099
-1.933031 -4.224667 0.013672 2.451395 -3.912023 -3.912023 -3.912023 1.000000 0.000000 0.000000 0.000000 -0.288127 -0.921082 -0.659852
-1.156390 -4.234424 0.008574 2.624878 -3.912023 -3.912023 -3.912023 1.000000 0.000000 0.000000 0.000000 -0.137462 -0.922798 -0.665025
-0.374137 -4.235508 -0.003301 1.526861 -3.912023 -3.912023 -3.912023 1.000000 0.000000 0.000000 0.000000 0.014291 -0.922989 -0.677077
0.396995 -4.229435 -0.017056 0.975389 -3.912023 -3.912023 -3.912023 1.000000 0.000000 0.000000 0.000000 0.163887 -0.921921 -0.691034
1.927478 -4.251491 0.007590 2.771511 -3.912023 -3.912023 -3.912023 1.000000 0.000000 0.000000 0.000000 0.460794 -0.925800 -0.666024
4.228624 -4.236247 0.027586 1.252975 -3.912023 -3.912023 -3.912023 1.000000 0.000000 0.000000 0.000000 0.907206 -0.923119 -0.645733
4.990602 -4.248405 0.013278 2.046860 -3.912023 -3.912023 -3.912023 1.000000 0.000000 0.000000 0.000000 1.055027 -0.925257 -0.660252
-4.986752 -3.460545 0.003012 2.866587 -3.912023 -3.912023 -3.912023 1.000000 0.000000 0.000000 0.000000 -0.880535 -0.786676 -0.670670
-3.439313 -3.472092 -0.005847 1.898998 -3.912023 -3.912023 -3.912023 1.000000 0.000000 0.000000 0.000000 -0.580339 -0.788707 -0.679660
-1.161048 -3.470102 0.022828 1.220708 -3.912023 -3.912023 -3.912023 1.000000 0.000000 0.000000 0.000000 -0.138366 -0.788357 -0.650560
1.920752 -3.462715 -0.000771 1.173723 -3.912023 -3.912023 -3.912023 1.000000 0.000000 0.000000 0.000000 0.459489 -0.787057 -0.674509
3.444795 -3.465478 -0.007021 1.598348 -3.912023 -3.912023 -3.912023 1.000000 0.000000 0.000000 0.000000 0.755147 -0.787543 -0.680851
-5.012614 -2.687875 -0.012701 2.898241 -3.912023 -3.912023 -3.912023 1.000000 0.000000 0.000000 0.000000 -0.885553 -0.650766 -0.686616
-3.466456 -2.716770 0.011529 1.553466 -3.912023 -3.912023 -3.912023 1.000000 0.000000 0.000000 0.000000 -0.585605 -0.655848 -0.662027
-2.689057 -2.669590 -0.004489 1.331996 -3.912023 -3.912023 -3.912023 1.000000 0.000000 0.000000 0.000000 -0.434793 -0.647550 -0.678282
-1.912382 -2.687085 -0.004960 2.525388 -3.912023 -3.912023 -3.912023 1.000000 0.000000 0.000000 0.000000 -0.284121 -0.650627 -0.678760
-1.124051 -2.691624 0.017684 1.173146 -3.912023 -3.912023 -3.912023 1.000000 0.000000 0.000000 0.000000 -0.131189 -0.651425 -0.655780
1.927026 -2.700840 0.019155 0.952270 -3.912023 -3.912023 -3.912023 1.000000 0.000000 0.000000 0.000000 0.460707 -0.653046 -0.654288
3.467698 -2.689841 -0.021588 1.616141 -3.912023 -3.912023 -3.912023 1.000000 0.000000 0.000000 0.000000 0.759590 -0.651112 -0.695633
-5.016090 -1.922237 -0.001853 1.284753 -3.912023 -3.912023 -3.912023 1.000000 0.000000 0.000000 0.000000 -0.886227 -0.516093 -0.675607
-4.229085 -1.919206 -0.000951 2.270399 -3.912023 -3.912023 -3.912023 1.000000 0.000000 0.000000 0.000000 -0.733551 -0.515560 -0.674692
-3.479954 -1.930650 -0.007046 1.934719 -3.912023 -3.912023 -3.912023 1.000000 0.000000 0.000000 0.000000 -0.588224 -0.517573 -0.680876
-2.674211 -1.924917 0.004015 1.018209 -3.912023 -3.912023 -3.912023 1.000000 0.000000 0.000000 0.000000 -0.431913 -0.516564 -0.669652
-1.930232 -1.913962 -0.006300 1.267656 -3.912023 -3.912023 -3.912023 1.000000 0.000000 0.000000 0.000000 -0.287584 -0.514637 -0.680120
-1.147550 -1.895905 0.004736 2.162124 -3.912023 -3.912023 -3.912023 1.000000 0.000000 0.000000 0.000000 -0.135748 -0.511461 -0.668921
-0.391393 -1.904715 -0.007601 2.562911 -3.912023 -3.912023 -3.912023 1.000000 0.000000 0.000000 0.000000 0.010944 -0.513011 -0.681440
1.912695 -1.940882 0.018010 1.967184 -3.912023 -3.912023 -3.912023 1.000000 0.000000 0.000000 0.000000 0.457926 -0.519373 -0.655450
4.226787 -1.933751 -0.006450 1.107199 -3.912023 -3.912023 -3.912023 1.000000 0.000000 0.000000 0.000000 0.906850 -0.518118 -0.680272
4.988622 -1.920858 0.002489 2.805029 -3.912023 -3.912023 -3.912023 1.000000 0.000000 0.000000 0.000000 1.054642 -0.515851 -0.671200
-5.000046 -1.145896 0.000803 0.957496 -3.912023 -3.912023 -3.912023 1.000000 0.000000 0.000000 0.000000 -0.883115 -0.379537 -0.672912
-0.392884 -1.136713 -0.008949 0.946872 -3.912023 -3.912023 -3.912023 1.000000 0.000000 0.000000 0.000000 0.010654 -0.377922 -0.682808
0.375094 -1.154064 0.009781 1.070640 -3.912023 -3.912023 -3.912023 1.000000 0.000000 0.000000 0.000000 0.159639 -0.380974 -0.663801
1.921664 -1.170180 -0.003352 2.068363 -3.912023 -3.912023 -3.912023 1.000000 0.000000 0.000000 0.000000 0.459666 -0.383809 -0.677128
2.713432 -1.140389 -0.005901 1.186121 -3.912023 -3.912023 -3.912023 1.000000 0.000000 0.000000 0.000000 0.613266 -0.378569 -0.679715
3.440806 -1.159178 0.006517 2.333923 -3.912023 -3.912023 -3.912023 1.000000 0.000000 0.000000 0.000000 0.754373 -0.381874 -0.667113
4.218724 -1.168917 0.014620 0.930979 -3.912023 -3.912023 -3.912023 1.000000 0.000000 0.000000 0.000000 0.905286 -0.383587 -0.658890
-4.228280 -0.382818 0.002065 1.943876 -3.912023 -3.912023 -3.912023 1.000000 0.000000 0.000000 0.000000 -0.733395 -0.245315 -0.671631
-3.475449 -0.377395 -0.000283 1.680996 -3.912023 -3.912023 -3.912023 1.000000 0.000000 0.000000 0.000000 -0.587350 -0.244361 -0.674013
-1.949696 -0.388041 0.015038 1.277549 -3.912023 -3.912023 -3.912023 1.000000 0.000000 0.000000 0.000000 -0.291360 -0.246234 -0.658466
-1.129610 -0.380489 0.004333 2.713720 -3.912023 -3.912023 -3.912023 1.000000 0.000000 0.000000 0.000000 -0.132267 -0.244905 -0.669329
0.387836 -0.389130 -0.031495 1.017814 -3.912023 -3.912023 -3.912023 1.000000 0.000000 0.000000 0.000000 0.162110 -0.246425 -0.705687
3.460562 -0.397745 0.005006 1.524085 -3.912023 -3.912023 -3.912023 1.000000 0.000000 0.000000 0.000000 0.758206 -0.247940 -0.668646
-5.002256 0.363267 -0.003208 0.926730 -3.912023 -3.912023 -3.912023 1.000000 0.000000 0.000000 0.000000 -0.883543 -0.114081 -0.676982
-2.667176 0.400274 0.026417 1.162811 -3.912023 -3.912023 -3.912023 1.000000 0.000000 0.000000 0.000000 -0.430548 -0.107572 -0.646919
-1.171375 0.386327 -0.001140 1.796113 -3.912023 -3.912023 -3.912023 1.000000 0.000000 0.000000 0.000000 -0.140370 -0.110025 -0.674884
1.909824 0.371339 -0.034741 2.210008 -3.912023 -3.912023 -3.912023 1.000000 0.000000 0.000000 0.000000 0.457369 -0.112662 -0.708982
2.676003 0.377338 -0.028960 1.405845 -3.912023 -3.912023 -3.912023 1.000000 0.000000 0.000000 0.000000 0.606005 -0.111606 -0.703115
5.014552 0.384110 -0.013791 1.250838 -3.912023 -3.912023 -3.912023 1.000000 0.000000 0.000000 0.000000 1.059673 -0.110415 -0.687722
-3.463814 1.152058 -0.019226 0.933835 -3.912023 -3.912023 -3.912023 1.000000 0.000000 0.000000 0.000000 -0.585092 0.024664 -0.693237
-1.926243 1.154486 0.004033 2.244241 -3.912023 -3.912023 -3.912023 1.000000 0.000000 0.000000 0.000000 -0.286811 0.025091 -0.669634
-1.161077 1.186884 -0.003205 1.130172 -3.912023 -3.912023 -3.912023 1.000000 0.000000 0.000000 0.000000 -0.138372 0.030790 -0.676978
-0.387808 1.168589 0.007392 2.515356 -3.912023 -3.912023 -3.912023 1.000000 0.000000 0.000000 0.000000 0.011639 0.027572 -0.666225
0.401296 1.144021 0.007903 0.854453 -3.912023 -3.912023 -3.912023 1.000000 0.000000 0.000000 0.000000 0.164722 0.023250 -0.665707
1.923606 1.170099 -0.011331 1.605607 -3.912023 -3.912023 -3.912023 1.000000 0.000000 0.000000 0.000000 0.460043 0.027837 -0.685225
4.998979 1.151975 0.011522 1.730585 -3.912023 -3.912023 -3.912023 1.000000 0.000000 0.000000 0.000000 1.056652 0.024650 -0.662034
-4.989679 1.942519 0.000391 0.934473 -3.912023 -3.912023 -3.912023 1.000000 0.000000 0.000000 0.000000 -0.881103 0.163703 -0.673329
-4.228958 1.935066 0.013169 1.193235 -3.912023 -3.912023 -3.912023 1.000000 0.000000 0.000000 0.000000 -0.733527 0.162392 -0.660363
-3.445631 1.940632 -0.008586 0.956081 -3.912023 -3.912023 -3.912023 1.000000 0.000000 0.000000 0.000000 -0.581565 0.163371 -0.682439
-2.679527 1.911040 0.007626 2.132488 -3.912023 -3.912023 -3.912023 1.000000 0.000000 0.000000 0.000000 -0.432944 0.158166 -0.665988
-1.947801 1.927407 -0.001928 2.606526 -3.912023 -3.912023 -3.912023 1.000000 0.000000 0.000000 0.000000 -0.290993 0.161045 -0.675683
-1.156317 1.929681 -0.017976 1.873605 -3.912023 -3.912023 -3.912023 1.000000 0.000000 0.000000 0.000000 -0.137448 0.161445 -0.691968
-0.403728 1.926739 0.010590 2.412145 -3.912023 -3.912023 -3.912023 1.000000 0.000000 0.000000 0.000000 0.008551 0.160927 -0.662980
1.148167 1.934656 0.016595 0.922423 -3.912023 -3.912023 -3.912023 1.000000 0.000000 0.000000 0.000000 0.309611 0.162320 -0.656886
-4.217026 2.728716 -0.014035 0.882802 -3.912023 -3.912023 -3.912023 1.000000 0.000000 0.000000 0.000000 -0.731212 0.301992 -0.687969
-2.677814 2.689379 -0.003845 1.494334 -3.912023 -3.912023 -3.912023 1.000000 0.000000 0.000000 0.000000 -0.432612 0.295073 -0.677628
-1.144177 2.705006 -0.008874 2.799804 -3.912023 -3.912023 -3.912023 1.000000 0.000000 0.000000 0.000000 -0.135093 0.297822 -0.682732
0.376253 2.698220 0.000669 1.759154 -3.912023 -3.912023 -3.912023 1.000000 0.000000 0.000000 0.000000 0.159863 0.296628 -0.673047
1.930436 2.675178 0.013915 2.465562 -3.912023 -3.912023 -3.912023 1.000000 0.000000 0.000000 0.000000 0.461368 0.292575 -0.659606
2.695553 2.690387 0.002606 1.054182 -3.912023 -3.912023 -3.912023 1.000000 0.000000 0.000000 0.000000 0.609797 0.295250 -0.671082
3.482038 2.678539 0.004464 0.939904 -3.912023 -3.912023 -3.912023 1.000000 0.000000 0.000000 0.000000 0.762372 0.293166 -0.669197
4.208713 2.692812 0.000506 1.808562 -3.912023 -3.912023 -3.912023 1.000000 0.000000 0.000000 0.000000 0.903344 0.295677 -0.673213
-3.459132 3.472406 0.008211 1.634016 -3.912023 -3.912023 -3.912023 1.000000 0.000000 0.000000 0.000000 -0.584184 0.432805 -0.665394
-1.934962 3.459203 -0.015311 0.991039 -3.912023 -3.912023 -3.912023 1.000000 0.000000 0.000000 0.000000 -0.288502 0.430482 -0.689263
-1.166557 3.466193 0.003158 0.978306 -3.912023 -3.912023 -3.912023 1.000000 0.000000 0.000000 0.000000 -0.139435 0.431712 -0.670521
-0.368849 3.484538 0.013548 1.718045 -3.912023 -3.912023 -3.912023 1.000000 0.000000 0.000000 0.000000 0.015317 0.434939 -0.659979
2.731303 3.458277 -0.030568 1.476301 -3.912023 -3.912023 -3.912023 1.000000 0.000000 0.000000 0.000000 0.616733 0.430319 -0.704747
3.442742 3.461554 -0.001194 1.535478 -3.912023 -3.912023 -3.912023 1.000000 0.000000 0.000000 0.000000 0.754749 0.430896 -0.674938
-1.151995 4.242262 -0.008148 1.947965 -3.912023 -3.912023 -3.912023 1.000000 0.000000 0.000000 0.000000 -0.136610 0.568219 -0.681995
-0.387815 4.222821 0.030128 0.962623 -3.912023 -3.912023 -3.912023 1.000000 0.000000 0.000000 0.000000 0.011638 0.564800 -0.643153
0.396596 4.226538 0.000699 2.455228 -3.912023 -3.912023 -3.912023 1.000000 0.000000 0.000000 0.000000 0.163810 0.565454 -0.673018
1.159733 4.230590 0.032544 1.030602 -3.912023 -3.912023 -3.912023 1.000000 0.000000 0.000000 0.000000 0.311855 0.566166 -0.640701
1.928302 4.214786 0.006506 1.903885 -3.912023 -3.912023 -3.912023 1.000000 0.000000 0.000000 0.000000 0.460954 0.563386 -0.667124
2.684976 4.241651 0.001657 0.941365 -3.912023 -3.912023 -3.912023 1.000000 0.000000 0.000000 0.000000 0.607745 0.568112 -0.672045
4.996737 4.226971 -0.000308 1.433383 -3.912023 -3.912023 -3.912023 1.000000 0.000000 0.000000 0.000000 1.056217 0.565530 -0.674039
-4.997620 4.992494 0.003465 2.025897 -3.912023 -3.912023 -3.912023 1.000000 0.000000 0.000000 0.000000 -0.882644 0.700182 -0.670211
-1.927526 4.999501 0.004879 2.855689 -3.912023 -3.912023 -3.912023 1.000000 0.000000 0.000000 0.000000 -0.287059 0.701415 -0.668775
-1.146894 5.010801 -0.003063 1.577597 -3.912023 -3.912023 -3.912023 1.000000 0.000000 0.000000 0.000000 -0.135620 0.703403 -0.676834
1.940319 4.979704 -0.001181 1.404708 -3.912023 -3.912023 -3.912023 1.000000 0.000000 0.000000 0.000000 0.463285 0.697933 -0.674925
4.211062 5.007031 0.007204 1.541510 -3.912023 -3.912023 -3.912023 1.000000 0.000000 0.000000 0.000000 0.903799 0.702739 -0.666415
5.034138 5.010847 0.034784 0.891500 -3.912023 -3.912023 -3.912023 1.000000 0.000000 0.000000 0.000000 1.063472 0.703411 -0.638428
-4.515759 4.982533 -0.001554 1.554308 -3.912023 -3.912023 -3.912023 1.000000 0.000000 0.000000 0.000000 -0.789165 0.698430 -0.675304
-3.906796 4.997633 0.017262 2.194834 -3.912023 -3.912023 -3.912023 1.000000 0.000000 0.000000 0.000000 -0.671029 0.701086 -0.656209
-2.631350 4.993405 0.029658 2.333211 -3.912023 -3.912023 -3.912023 1.000000 0.000000 0.000000 0.000000 -0.423598 0.700343 -0.643630
-2.317028 4.993650 -0.009152 2.664267 -3.912023 -3.912023 -3.912023 1.000000 0.000000 0.000000 0.000000 -0.362621 0.700386 -0.683014
-0.452166 4.991238 -0.002345 1.420074 -3.912023 -3.912023 -3.912023 1.000000 0.000000 0.000000 0.000000 -0.000846 0.699961 -0.676106
0.145363 5.010553 -0.026825 2.438069 -3.912023 -3.912023 -3.912023 1.000000 0.000000 0.000000 0.000000 0.115072 0.703359 -0.700948
1.068235 5.017328 0.000353 2.835419 -3.912023 -3.912023 -3.912023 1.000000 0.000000 0.000000 0.000000 0.294105 0.704551 -0.673368
1.405464 4.990757 0.009449 0.976137 -3.912023 -3.912023 -3.912023 1.000000 0.000000 0.000000 0.000000 0.359526 0.699877 -0.664138
1.704258 4.998292 0.001997 1.932967 -3.912023 -3.912023 -3.912023 1.000000 0.000000 0.000000 0.000000 0.417490 0.701202 -0.671700
2.339023 5.000033 -0.005634 2.435843 -3.912023 -3.912023 -3.912023 1.000000 0.000000 0.000000 0.000000 0.540632 0.701508 -0.679444
2.631425 4.996392 0.022448 1.167981 -3.912023 -3.912023 -3.912023 1.000000 0.000000 0.000000 0.000000 0.597357 0.700868 -0.650946
3.251338 5.003684 -0.029495 1.134153 -3.912023 -3.912023 -3.912023 1.000000 0.000000 0.000000 0.000000 0.717617 0.702151 -0.703658
3.556794 5.005303 0.006062 1.028417 -3.912023 -3.912023 -3.912023 1.000000 0.000000 0.000000 0.000000 0.776874 0.702435 -0.667574
3.876767 4.997779 -0.001051 1.447583 -3.912023 -3.912023 -3.912023 1.000000 0.000000 0.000000 0.000000 0.838947 0.701112 -0.674793
4.184379 5.010391 0.005761 1.258027 -3.912023 -3.912023 -3.912023 1.000000 0.000000 0.000000 0.000000 0.898623 0.703331 -0.667881
4.508875 5.016224 -0.030473 1.290251 -3.912023 -3.912023 -3.912023 1.000000 0.000000 0.000000 0.000000 0.961574 0.704356 -0.704650
-4.489783 5.002056 0.329544 1.211680 -3.912023 -3.912023 -3.912023 1.000000 0.000000 0.000000 0.000000 -0.784126 0.701864 -0.339309
-4.192634 5.012612 0.287245 0.900808 -3.912023 -3.912023 -3.912023 1.000000 0.000000 0.000000 0.000000 -0.726480 0.703721 -0.382233
-3.905336 4.987282 0.304262 1.323361 -3.912023 -3.912023 -3.912023 1.000000 0.000000 0.000000 0.000000 -0.670746 0.699266 -0.364965
-3.571087 5.008160 0.309173 1.231201 -3.912023 -3.912023 -3.912023 1.000000 0.000000 0.000000 0.000000 -0.605903 0.702938 -0.359982
-2.640005 5.008192 0.276453 0.971993 -3.912023 -3.912023 -3.912023 1.000000 0.000000 0.000000 0.000000 -0.425277 0.702944 -0.393185
-2.313939 4.987508 0.285935 1.690829 -3.912023 -3.912023 -3.912023 1.000000 0.000000 0.000000 0.000000 -0.362022 0.699305 -0.383563
-1.114845 4.997409 0.300330 1.573409 -3.912023 -3.912023 -3.912023 1.000000 0.000000 0.000000 0.000000 -0.129403 0.701047 -0.368956
-0.751822 4.980084 0.304632 2.577860 -3.912023 -3.912023 -3.912023 1.000000 0.000000 0.000000 0.000000 -0.058978 0.697999 -0.364590
-0.462069 5.015845 0.311897 0.978649 -3.912023 -3.912023 -3.912023 1.000000 0.000000 0.000000 0.000000 -0.002767 0.704290 -0.357217
-0.140554 4.999705 0.283787 1.399000 -3.912023 -3.912023 -3.912023 1.000000 0.000000 0.000000 0.000000 0.059605 0.701451 -0.385743
0.164808 5.013419 0.295518 1.024181 -3.912023 -3.912023 -3.912023 1.000000 0.000000 0.000000 0.000000 0.118844 0.703863 -0.373839
0.446409 5.010239 0.310913 1.883149 -3.912023 -3.912023 -3.912023 1.000000 0.000000 0.000000 0.000000 0.173473 0.703304 -0.358216
0.787550 4.991933 0.306576 1.335626 -3.912023 -3.912023 -3.912023 1.000000 0.000000 0.000000 0.000000 0.239653 0.700084 -0.362617
1.098127 5.000024 0.306194 1.406136 -3.912023 -3.912023 -3.912023 1.000000 0.000000 0.000000 0.000000 0.299904 0.701507 -0.363004
2.017213 5.018147 0.273012 0.936091 -3.912023 -3.912023 -3.912023 1.000000 0.000000 0.000000 0.000000 0.478202 0.704695 -0.396677
3.290921 4.994127 0.333788 1.305674 -3.912023 -3.912023 -3.912023 1.000000 0.000000 0.000000 0.000000 0.725296 0.700470 -0.335003
3.558720 5.030894 0.326925 1.585353 -3.912023 -3.912023 -3.912023 1.000000 0.000000 0.000000 0.000000 0.777248 0.706937 -0.341967
4.198989 5.000190 0.304482 0.890971 -3.912023 -3.912023 -3.912023 1.000000 0.000000 0.000000 0.000000 0.901457 0.701536 -0.364741
-4.499449 5.006759 0.614580 1.920585 -3.912023 -3.912023 -3.912023 1.000000 0.000000 0.000000 0.000000 -0.786001 0.702692 -0.050058
-3.254550 5.004972 0.600112 1.385121 -3.912023 -3.912023 -3.912023 1.000000 0.000000 0.000000 0.000000 -0.544496 0.702377 -0.064740
-2.948290 4.993655 0.611776 2.744334 -3.912023 -3.912023 -3.912023 1.000000 0.000000 0.000000 0.000000 -0.485083 0.700387 -0.052904
-2.635692 5.013487 0.636835 1.068677 -3.912023 -3.912023 -3.912023 1.000000 0.000000 0.000000 0.000000 -0.424440 0.703875 -0.027475
-2.016386 4.989020 0.607057 1.029631 -3.912023 -3.912023 -3.912023 1.000000 0.000000 0.000000 0.000000 -0.304298 0.699571 -0.057692
-1.068013 4.991302 0.603826 2.043101 -3.912023 -3.912023 -3.912023 1.000000 0.000000 0.000000 0.000000 -0.120318 0.699973 -0.060971
-0.448744 5.015409 0.601930 1.356683 -3.912023 -3.912023 -3.912023 1.000000 0.000000 0.000000 0.000000 -0.000182 0.704213 -0.062896
0.173762 5.025307 0.597743 2.026508 -3.912023 -3.912023 -3.912023 1.000000 0.000000 0.000000 0.000000 0.120581 0.705954 -0.067144
0.794409 4.988650 0.622220 1.435429 -3.912023 -3.912023 -3.912023 1.000000 0.000000 0.000000 0.000000 0.240984 0.699506 -0.042306
1.696090 4.994032 0.619677 2.363777 -3.912023 -3.912023 -3.912023 1.000000 0.000000 0.000000 0.000000 0.415906 0.700453 -0.044886
2.027097 5.012283 0.613927 1.252643 -3.912023 -3.912023 -3.912023 1.000000 0.000000 0.000000 0.000000 0.480120 0.703663 -0.050721
2.638104 5.003528 0.594449 1.568285 -3.912023 -3.912023 -3.912023 1.000000 0.000000 0.000000 0.000000 0.598652 0.702123 -0.070487
3.256988 4.970609 0.629776 2.058307 -3.912023 -3.912023 -3.912023 1.000000 0.000000 0.000000 0.000000 0.718713 0.696333 -0.034638
3.559208 5.014880 0.579776 1.171543 -3.912023 -3.912023 -3.912023 1.000000 0.000000 0.000000 0.000000 0.777343 0.704120 -0.085377
4.189287 4.996232 0.610030 0.900976 -3.912023 -3.912023 -3.912023 1.000000 0.000000 0.000000 0.000000 0.899575 0.700840 -0.054676
4.505116 4.992465 0.577726 1.297656 -3.912023 -3.912023 -3.912023 1.000000 0.000000 0.000000 0.000000 0.960844 0.700177 -0.087457
-4.507714 5.000927 0.899766 1.623733 -3.912023 -3.912023 -3.912023 1.000000 0.000000 0.000000 0.000000 -0.787604 0.701666 0.239344
-3.276243 5.031371 0.914966 2.366236 -3.912023 -3.912023 -3.912023 1.000000 0.000000 0.000000 0.000000 -0.548704 0.707021 0.254769
-2.620186 4.997858 0.883877 2.347010 -3.912023 -3.912023 -3.912023 1.000000 0.000000 0.000000 0.000000 -0.421432 0.701126 0.223221
-2.302353 5.009587 0.913159 1.404954 -3.912023 -3.912023 -3.912023 1.000000 0.000000 0.000000 0.000000 -0.359774 0.703189 0.252936
-1.709545 4.984726 0.890363 1.483390 -3.912023 -3.912023 -3.912023 1.000000 0.000000 0.000000 0.000000 -0.244772 0.698816 0.229803
-0.458533 5.013314 0.868880 1.726396 -3.912023 -3.912023 -3.912023 1.000000 0.000000 0.000000 0.000000 -0.002081 0.703845 0.208002
0.142170 5.021172 0.899632 1.147300 -3.912023 -3.912023 -3.912023 1.000000 0.000000 0.000000 0.000000 0.114452 0.705227 0.239209
1.392705 4.992674 0.902542 1.369931 -3.912023 -3.912023 -3.912023 1.000000 0.000000 0.000000 0.000000 0.357051 0.700214 0.242162
2.019714 5.007047 0.909206 1.257558 -3.912023 -3.912023 -3.912023 1.000000 0.000000 0.000000 0.000000 0.478687 0.702742 0.248925
3.268868 5.001669 0.909760 0.893010 -3.912023 -3.912023 -3.912023 1.000000 0.000000 0.000000 0.000000 0.721018 0.701796 0.249487
3.898930 5.003356 0.891537 1.465643 -3.912023 -3.912023 -3.912023 1.000000 0.000000 0.000000 0.000000 0.843247 0.702093 0.230994
4.176413 5.012350 0.894118 1.830133 -3.912023 -3.912023 -3.912023 1.000000 0.000000 0.000000 0.000000 0.897078 0.703675 0.233614
4.513800 5.001073 0.904432 1.637947 -3.912023 -3.912023 -3.912023 1.000000 0.000000 0.000000 0.000000 0.962529 0.701692 0.244080
-4.511214 5.024153 1.235748 1.982647 -3.912023 -3.912023 -3.912023 1.000000 0.000000 0.000000 0.000000 -0.788283 0.705751 0.580296
-3.558159 4.998660 1.218962 1.002151 -3.912023 -3.912023 -3.912023 1.000000 0.000000 0.000000 0.000000 -0.603395 0.701267 0.563261
-3.268217 5.001397 1.198309 1.209808 -3.912023 -3.912023 -3.912023 1.000000 0.000000 0.000000 0.000000 -0.547147 0.701748 0.542302
-2.638285 5.006129 1.197359 1.601332 -3.912023 -3.912023 -3.912023 1.000000 0.000000 0.000000 0.000000 -0.424943 0.702581 0.541338
-2.327212 4.985764 1.200688 1.228201 -3.912023 -3.912023 -3.912023 1.000000 0.000000 0.000000 0.000000 -0.364597 0.698999 0.544717
-0.768389 4.982240 1.157924 1.903715 -3.912023 -3.912023 -3.912023 1.000000 0.000000 0.000000 0.000000 -0.062192 0.698379 0.501320
-0.459974 4.983008 1.207776 1.188213 -3.912023 -3.912023 -3.912023 1.000000 0.000000 0.000000 0.000000 -0.002361 0.698514 0.551910
-0.151068 4.982935 1.211830 1.884016 -3.912023 -3.912023 -3.912023 1.000000 0.000000 0.000000 0.000000 0.057566 0.698501 0.556024
0.177144 4.984250 1.182433 2.028745 -3.912023 -3.912023 -3.912023 1.000000 0.000000 0.000000 0.000000 0.121237 0.698732 0.526192
0.456521 5.018009 1.199456 2.336288 -3.912023 -3.912023 -3.912023 1.000000 0.000000 0.000000 0.000000 0.175435 0.704670 0.543467
1.103010 4.987519 1.186148 2.369178 -3.912023 -3.912023 -3.912023 1.000000 0.000000 0.000000 0.000000 0.300851 0.699307 0.529961
2.335050 4.991225 1.207807 2.226555 -3.912023 -3.912023 -3.912023 1.000000 0.000000 0.000000 0.000000 0.539861 0.699959 0.551941
2.659920 4.982731 1.197393 1.392037 -3.912023 -3.912023 -3.912023 1.000000 0.000000 0.000000 0.000000 0.602885 0.698465 0.541373
2.950683 5.005960 1.211644 1.790810 -3.912023 -3.912023 -3.912023 1.000000 0.000000 0.000000 0.000000 0.659291 0.702551 0.555835
3.260523 5.007169 1.177035 2.307324 -3.912023 -3.912023 -3.912023 1.000000 0.000000 0.000000 0.000000 0.719399 0.702764 0.520714
3.561182 4.998240 1.200606 1.184308 -3.912023 -3.912023 -3.912023 1.000000 0.000000 0.000000 0.000000 0.777725 0.701193 0.544634
3.862266 5.042518 1.202411 1.559041 -3.912023 -3.912023 -3.912023 1.000000 0.000000 0.000000 0.000000 0.836134 0.708982 0.546465
4.173443 4.982396 1.210781 2.433418 -3.912023 -3.912023 -3.912023 1.000000 0.000000 0.000000 0.000000 0.896501 0.698406 0.554959
4.492920 5.005533 1.217009 1.629966 -3.912023 -3.912023 -3.912023 1.000000 0.000000 0.000000 0.000000 0.958478 0.702476 0.561279
-4.199928 5.029976 1.493626 1.117686 -3.912023 -3.912023 -3.912023 1.000000 0.000000 0.000000 0.000000 -0.727895 0.706775 0.841987
-3.894391 5.011169 1.495795 1.933518 -3.912023 -3.912023 -3.912023 1.000000 0.000000 0.000000 0.000000 -0.668622 0.703467 0.844188
-3.580387 4.978091 1.497048 1.818088 -3.912023 -3.912023 -3.912023 1.000000 0.000000 0.000000 0.000000 -0.607707 0.697649 0.845459
-1.991944 5.005204 1.493079 1.755490 -3.912023 -3.912023 -3.912023 1.000000 0.000000 0.000000 0.000000 -0.299556 0.702418 0.841431
-1.032958 5.008669 1.496675 1.546815 -3.912023 -3.912023 -3.912023 1.000000 0.000000 0.000000 0.000000 -0.113517 0.703028 0.845081
-0.787958 5.023769 1.518466 1.743618 -3.912023 -3.912023 -3.912023 1.000000 0.000000 0.000000 0.000000 -0.065988 0.705684 0.867194
-0.447133 5.013886 1.499755 1.155513 -3.912023 -3.912023 -3.912023 1.000000 0.000000 0.000000 0.000000 0.000130 0.703945 0.848206
-0.124907 4.979382 1.478575 2.044843 -3.912023 -3.912023 -3.912023 1.000000 0.000000 0.000000 0.000000 0.062641 0.697876 0.826713
1.085175 4.995325 1.504606 1.013484 -3.912023 -3.912023 -3.912023 1.000000 0.000000 0.000000 0.000000 0.297391 0.700680 0.853129
1.978651 5.004208 1.491925 1.881268 -3.912023 -3.912023 -3.912023 1.000000 0.000000 0.000000 0.000000 0.470722 0.702243 0.840260
2.335507 5.023266 1.482707 2.889785 -3.912023 -3.912023 -3.912023 1.000000 0.000000 0.000000 0.000000 0.539950 0.705595 0.830906
2.985244 5.002454 1.508845 1.971917 -3.912023 -3.912023 -3.912023 1.000000 0.000000 0.000000 0.000000 0.665996 0.701934 0.857431
4.186572 4.983462 1.514614 0.928544 -3.912023 -3.912023 -3.912023 1.000000 0.000000 0.000000 0.000000 0.899048 0.698594 0.863285
-4.234325 -5.003450 -0.013530 1.059811 -3.912023 -3.912023 -3.912023 1.000000 0.000000 0.000000 0.000000 -0.734568 -1.058067 -0.687457
-3.580696 -5.010416 -0.015902 2.207512 -3.912023 -3.912023 -3.912023 1.000000 0.000000 0.000000 0.000000 -0.607767 -1.059292 -0.689864
-2.932133 -5.012418 0.002280 1.078633 -3.912023 -3.912023 -3.912023 1.000000 0.000000 0.000000 0.000000 -0.481949 -1.059644 -0.671413
-2.646271 -5.025137 0.021945 1.424485 -3.912023 -3.912023 -3.912023 1.000000 0.000000 0.000000 0.000000 -0.426493 -1.061882 -0.651457
-1.379925 -5.034181 -0.013203 1.359765 -3.912023 -3.912023 -3.912023 1.000000 0.000000 0.000000 0.000000 -0.180827 -1.063472 -0.687124
-1.119900 -5.011316 0.002926 2.812112 -3.912023 -3.912023 -3.912023 1.000000 0.000000 0.000000 0.000000 -0.130383 -1.059450 -0.670757
0.156800 -5.009727 -0.000157 1.120964 -3.912023 -3.912023 -3.912023 1.000000 0.000000 0.000000 0.000000 0.117290 -1.059171 -0.673886
0.460944 -5.000202 0.019146 1.124766 -3.912023 -3.912023 -3.912023 1.000000 0.000000 0.000000 0.000000 0.176293 -1.057495 -0.654297
0.774708 -4.966335 0.000139 1.772932 -3.912023 -3.912023 -3.912023 1.000000 0.000000 0.000000 0.000000 0.237162 -1.051538 -0.673586
2.352932 -4.987852 -0.020287 1.333541 -3.912023 -3.912023 -3.912023 1.000000 0.000000 0.000000 0.000000 0.543330 -1.055323 -0.694313
2.661540 -4.998870 -0.013781 1.265147 -3.912023 -3.912023 -3.912023 1.000000 0.000000 0.000000 0.000000 0.603199 -1.057261 -0.687711
2.932556 -5.011774 0.009504 1.147101 -3.912023 -3.912023 -3.912023 1.000000 0.000000 0.000000 0.000000 0.655775 -1.059531 -0.664082
3.571444 -5.008677 -0.002726 2.796893 -3.912023 -3.912023 -3.912023 1.000000 0.000000 0.000000 0.000000 0.779716 -1.058986 -0.676493
4.509876 -4.996784 -0.008964 1.318049 -3.912023 -3.912023 -3.912023 1.000000 0.000000 0.000000 0.000000 0.961768 -1.056894 -0.682823
-4.183530 -5.013840 0.299102 1.330840 -3.912023 -3.912023 -3.912023 1.000000 0.000000 0.000000 0.000000 -0.724714 -1.059894 -0.370201
-3.894668 -4.990086 0.317192 1.420853 -3.912023 -3.912023 -3.912023 1.000000 0.000000 0.000000 0.000000 -0.668676 -1.055716 -0.351844
-3.567857 -4.980556 0.310950 1.589430 -3.912023 -3.912023 -3.912023 1.000000 0.000000 0.000000 0.000000 -0.605276 -1.054040 -0.358178
-2.601528 -5.001843 0.270348 1.994393 -3.912023 -3.912023 -3.912023 1.000000 0.000000 0.000000 0.000000 -0.417813 -1.057784 -0.399381
-2.000934 -4.999360 0.294797 0.851105 -3.912023 -3.912023 -3.912023 1.000000 0.000000 0.000000 0.000000 -0.301300 -1.057348 -0.374570
-1.709932 -5.010405 0.285009 2.445816 -3.912023 -3.912023 -3.912023 1.000000 0.000000 0.000000 0.000000 -0.244847 -1.059290 -0.384503
-0.451472 -4.999353 0.306716 1.427156 -3.912023 -3.912023 -3.912023 1.000000 0.000000 0.000000 0.000000 -0.000712 -1.057346 -0.362475
-0.157348 -4.997189 0.303964 1.207625 -3.912023 -3.912023 -3.912023 1.000000 0.000000 0.000000 0.000000 0.056347 -1.056966 -0.365267
0.772223 -4.988083 0.296558 2.465182 -3.912023 -3.912023 -3.912023 1.000000 0.000000 0.000000 0.000000 0.236680 -1.055364 -0.372783
2.950412 -4.998961 0.306343 0.894701 -3.912023 -3.912023 -3.912023 1.000000 0.000000 0.000000 0.000000 0.659239 -1.057277 -0.362854
3.906879 -4.983111 0.293210 1.870027 -3.912023 -3.912023 -3.912023 1.000000 0.000000 0.000000 0.000000 0.844789 -1.054489 -0.376180
4.192204 -4.982061 0.328111 2.175979 -3.912023 -3.912023 -3.912023 1.000000 0.000000 0.000000 0.000000 0.900141 -1.054305 -0.340764
-4.182365 -5.003247 0.603255 2.801091 -3.912023 -3.912023 -3.912023 1.000000 0.000000 0.000000 0.000000 -0.724488 -1.058031 -0.061551
-3.880237 -5.004514 0.618205 1.095249 -3.912023 -3.912023 -3.912023 1.000000 0.000000 0.000000 0.000000 -0.665877 -1.058254 -0.046380
-2.917428 -5.009673 0.603607 1.789898 -3.912023 -3.912023 -3.912023 1.000000 0.000000 0.000000 0.000000 -0.479096 -1.059162 -0.061194
-2.640016 -4.999817 0.599176 2.674917 -3.912023 -3.912023 -3.912023 1.000000 0.000000 0.000000 0.000000 -0.425279 -1.057428 -0.065691
-2.027429 -4.975575 0.600603 2.265779 -3.912023 -3.912023 -3.912023 1.000000 0.000000 0.000000 0.000000 -0.306440 -1.053164 -0.064242
-1.397179 -4.996961 0.599004 1.603707 -3.912023 -3.912023 -3.912023 1.000000 0.000000 0.000000 0.000000 -0.184175 -1.056925 -0.065865
-0.784302 -4.989680 0.582438 1.138544 -3.912023 -3.912023 -3.912023 1.000000 0.000000 0.000000 0.000000 -0.065279 -1.055645 -0.082676
0.462908 -5.014393 0.594744 2.941495 -3.912023 -3.912023 -3.912023 1.000000 0.000000 0.000000 0.000000 0.176674 -1.059992 -0.070188
0.787493 -4.991319 0.607841 1.714151 -3.912023 -3.912023 -3.912023 1.000000 0.000000 0.000000 0.000000 0.239642 -1.055933 -0.056897
1.097182 -5.017604 0.634602 0.898028 -3.912023 -3.912023 -3.912023 1.000000 0.000000 0.000000 0.000000 0.299720 -1.060556 -0.029740
1.390333 -5.004739 0.619865 0.865346 -3.912023 -3.912023 -3.912023 1.000000 0.000000 0.000000 0.000000 0.356590 -1.058294 -0.044695
1.716656 -4.960956 0.620173 2.526873 -3.912023 -3.912023 -3.912023 1.000000 0.000000 0.000000 0.000000 0.419896 -1.050592 -0.044383
2.004588 -4.987223 0.607171 1.372225 -3.912023 -3.912023 -3.912023 1.000000 0.000000 0.000000 0.000000 0.475753 -1.055213 -0.057577
2.653743 -4.993217 0.601979 1.044138 -3.912023 -3.912023 -3.912023 1.000000 0.000000 0.000000 0.000000 0.601686 -1.056267 -0.062846
3.261422 -4.987127 0.591095 1.580871 -3.912023 -3.912023 -3.912023 1.000000 0.000000 0.000000 0.000000 0.719573 -1.055196 -0.073890
4.211988 -4.982886 0.616112 0.872513 -3.912023 -3.912023 -3.912023 1.000000 0.000000 0.000000 0.000000 0.903979 -1.054450 -0.048503
-4.202184 -4.985609 0.867028 1.992668 -3.912023 -3.912023 -3.912023 1.000000 0.000000 0.000000 0.000000 -0.728333 -1.054929 0.206123
-3.887399 -5.001721 0.893905 0.902389 -3.912023 -3.912023 -3.912023 1.000000 0.000000 0.000000 0.000000 -0.667266 -1.057763 0.233397
-3.591704 -5.008139 0.917352 1.692616 -3.912023 -3.912023 -3.912023 1.000000 0.000000 0.000000 0.000000 -0.609902 -1.058892 0.257191
-3.278729 -4.990155 0.904405 2.842474 -3.912023 -3.912023 -3.912023 1.000000 0.000000 0.000000 0.000000 -0.549187 -1.055728 0.244053
-2.967320 -5.007410 0.914503 2.912192 -3.912023 -3.912023 -3.912023 1.000000 0.000000 0.000000 0.000000 -0.488775 -1.058763 0.254300
-2.659463 -5.004481 0.914087 1.662924 -3.912023 -3.912023 -3.912023 1.000000 0.000000 0.000000 0.000000 -0.429052 -1.058248 0.253878
-1.394078 -5.013952 0.894232 1.815102 -3.912023 -3.912023 -3.912023 1.000000 0.000000 0.000000 0.000000 -0.183573 -1.059914 0.233729
-0.757900 -4.993932 0.904624 2.391995 -3.912023 -3.912023 -3.912023 1.000000 0.000000 0.000000 0.000000 -0.060157 -1.056393 0.244275
-0.470885 -5.009303 0.895687 1.307763 -3.912023 -3.912023 -3.912023 1.000000 0.000000 0.000000 0.000000 -0.004478 -1.059096 0.235206
0.438174 -4.990277 0.926030 1.625584 -3.912023 -3.912023 -3.912023 1.000000 0.000000 0.000000 0.000000 0.171876 -1.055750 0.265997
1.101824 -4.989771 0.907050 1.390975 -3.912023 -3.912023 -3.912023 1.000000 0.000000 0.000000 0.000000 0.300621 -1.055661 0.246737
1.404600 -5.003141 0.885661 1.614765 -3.912023 -3.912023 -3.912023 1.000000 0.000000 0.000000 0.000000 0.359358 -1.058013 0.225031
2.033633 -5.000612 0.906793 1.676530 -3.912023 -3.912023 -3.912023 1.000000 0.000000 0.000000 0.000000 0.481388 -1.057568 0.246475
2.330366 -5.001289 0.924795 1.053645 -3.912023 -3.912023 -3.912023 1.000000 0.000000 0.000000 0.000000 0.538953 -1.057687 0.264744
2.940265 -5.008347 0.904736 2.164166 -3.912023 -3.912023 -3.912023 1.000000 0.000000 0.000000 0.000000 0.657270 -1.058928 0.244388
3.558480 -5.018242 0.913183 1.246816 -3.912023 -3.912023 -3.912023 1.000000 0.000000 0.000000 0.000000 0.777201 -1.060669 0.252961
3.906300 -5.006378 0.881025 1.085648 -3.912023 -3.912023 -3.912023 1.000000 0.000000 0.000000 0.000000 0.844677 -1.058582 0.220327
-3.578904 -5.009270 1.208638 2.188138 -3.912023 -3.912023 -3.912023 1.000000 0.000000 0.000000 0.000000 -0.607419 -1.059091 0.552784
-3.253159 -4.974958 1.205402 2.816934 -3.912023 -3.912023 -3.912023 1.000000 0.000000 0.000000 0.000000 -0.544226 -1.053055 0.549501
-2.962584 -5.001425 1.213638 0.947228 -3.912023 -3.912023 -3.912023 1.000000 0.000000 0.000000 0.000000 -0.487856 -1.057711 0.557858
-2.627867 -5.008809 1.199162 1.342986 -3.912023 -3.912023 -3.912023 1.000000 0.000000 0.000000 0.000000 -0.422922 -1.059010 0.543169
-2.338671 -5.024538 1.217991 1.881652 -3.912023 -3.912023 -3.912023 1.000000 0.000000 0.000000 0.000000 -0.366820 -1.061776 0.562276
-0.775123 -4.995845 1.189165 1.135511 -3.912023 -3.912023 -3.912023 1.000000 0.000000 0.000000 0.000000 -0.063498 -1.056729 0.533023
2.344932 -4.991233 1.219946 1.777845 -3.912023 -3.912023 -3.912023 1.000000 0.000000 0.000000 0.000000 0.541778 -1.055918 0.564260
2.951114 -4.980412 1.189126 1.636732 -3.912023 -3.912023 -3.912023 1.000000 0.000000 0.000000 0.000000 0.659375 -1.054015 0.532984
3.586214 -4.993008 1.217596 1.514153 -3.912023 -3.912023 -3.912023 1.000000 0.000000 0.000000 0.000000 0.782582 -1.056230 0.561875
4.230153 -4.944388 1.198484 1.867540 -3.912023 -3.912023 -3.912023 1.000000 0.000000 0.000000 0.000000 0.907503 -1.047678 0.542480
-4.505865 -5.009423 1.489202 1.140958 -3.912023 -3.912023 -3.912023 1.000000 0.000000 0.000000 0.000000 -0.787246 -1.059117 0.837497
-3.876435 -5.016539 1.505439 1.221393 -3.912023 -3.912023 -3.912023 1.000000 0.000000 0.000000 0.000000 -0.665139 -1.060369 0.853975
-3.254886 -5.011025 1.537222 1.576717 -3.912023 -3.912023 -3.912023 1.000000 0.000000 0.000000 0.000000 -0.544561 -1.059399 0.886227
-2.965327 -5.007424 1.504548 0.903036 -3.912023 -3.912023 -3.912023 1.000000 0.000000 0.000000 0.000000 -0.488388 -1.058766 0.853070
-1.996576 -5.009903 1.491447 1.106167 -3.912023 -3.912023 -3.912023 1.000000 0.000000 0.000000 0.000000 -0.300455 -1.059202 0.839775
-1.733057 -5.002659 1.498852 0.963705 -3.912023 -3.912023 -3.912023 1.000000 0.000000 0.000000 0.000000 -0.249333 -1.057928 0.847290
-1.410403 -5.012577 1.502113 2.288038 -3.912023 -3.912023 -3.912023 1.000000 0.000000 0.000000 0.000000 -0.186740 -1.059672 0.850599
-0.461840 -4.993698 1.514111 1.791317 -3.912023 -3.912023 -3.912023 1.000000 0.000000 0.000000 0.000000 -0.002723 -1.056351 0.862775
-0.133962 -5.016333 1.508074 1.989662 -3.912023 -3.912023 -3.912023 1.000000 0.000000 0.000000 0.000000 0.060884 -1.060333 0.856648
0.456737 -5.007783 1.502095 0.866795 -3.912023 -3.912023 -3.912023 1.000000 0.000000 0.000000 0.000000 0.175477 -1.058829 0.850580
2.020127 -5.010487 1.476820 1.419909 -3.912023 -3.912023 -3.912023 1.000000 0.000000 0.000000 0.000000 0.478768 -1.059305 0.824932
2.318358 -4.992291 1.498732 1.168308 -3.912023 -3.912023 -3.912023 1.000000 0.000000 0.000000 0.000000 0.536623 -1.056104 0.847169
2.637325 -5.012275 1.487465 0.904450 -3.912023 -3.912023 -3.912023 1.000000 0.000000 0.000000 0.000000 0.598501 -1.059619 0.835734
3.592822 -5.013183 1.503724 1.556873 -3.912023 -3.912023 -3.912023 1.000000 0.000000 0.000000 0.000000 0.783864 -1.059779 0.852234
4.211816 -5.005701 1.526202 2.240132 -3.912023 -3.912023 -3.912023 1.000000 0.000000 0.000000 0.000000 0.903946 -1.058463 0.875045
4.500192 -4.999048 1.505679 0.889711 -3.912023 -3.912023 -3.912023 1.000000 0.000000 0.000000 0.000000 0.959889 -1.057293 0.854217
