ply
format ascii 1.0
element vertex 279
property float x
property float y
property float z
property float opacity
end_header
-4.247965 -5.028828 0.007100 1.433845
-2.705793 -5.012276 0.003071 1.192866
-1.938478 -4.996830 0.005032 1.314872
-1.164986 -4.971737 -0.008570 1.987402
-0.380507 -5.008088 0.009997 1.921204
1.943841 -5.011273 -0.014701 1.279384
2.663531 -4.976503 0.018544 2.383742
4.237733 -5.003132 -0.004406 1.202967
-4.240538 -4.247602 -0.011207 1.056909
-1.933031 -4.224667 0.013672 2.451395
-1.156390 -4.234424 0.008574 2.624878
-0.374137 -4.235508 -0.003301 1.526861
0.396995 -4.229435 -0.017056 0.975389
1.927478 -4.251491 0.007590 2.771511
4.228624 -4.236247 0.027586 1.252975
4.990602 -4.248405 0.013278 2.046860
-4.986752 -3.460545 0.003012 2.866587
-3.439313 -3.472092 -0.005847 1.898998
-1.161048 -3.470102 0.022828 1.220708
1.920752 -3.462715 -0.000771 1.173723
3.444795 -3.465478 -0.007021 1.598348
-5.012614 -2.687875 -0.012701 2.898241
-3.466456 -2.716770 0.011529 1.553466
-2.689057 -2.669590 -0.004489 1.331996
-1.912382 -2.687085 -0.004960 2.525388
-1.124051 -2.691624 0.017684 1.173146
1.927026 -2.700840 0.019155 0.952270
3.467698 -2.689841 -0.021588 1.616141
-5.016090 -1.922237 -0.001853 1.284753
-4.229085 -1.919206 -0.000951 2.270399
-3.479954 -1.930650 -0.007046 1.934719
-2.674211 -1.924917 0.004015 1.018209
-1.930232 -1.913962 -0.006300 1.267656
-1.147550 -1.895905 0.004736 2.162124
-0.391393 -1.904715 -0.007601 2.562911
1.912695 -1.940882 0.018010 1.967184
4.226787 -1.933751 -0.006450 1.107199
4.988622 -1.920858 0.002489 2.805029
-5.000046 -1.145896 0.000803 0.957496
-0.392884 -1.136713 -0.008949 0.946872
0.375094 -1.154064 0.009781 1.070640
1.921664 -1.170180 -0.003352 2.068363
2.713432 -1.140389 -0.005901 1.186121
3.440806 -1.159178 0.006517 2.333923
4.218724 -1.168917 0.014620 0.930979
-4.228280 -0.382818 0.002065 1.943876
-3.475449 -0.377395 -0.000283 1.680996
-1.949696 -0.388041 0.015038 1.277549
-1.129610 -0.380489 0.004333 2.713720
0.387836 -0.389130 -0.031495 1.017814
3.460562 -0.397745 0.005006 1.524085
-5.002256 0.363267 -0.003208 0.926730
-2.667176 0.400274 0.026417 1.162811
-1.171375 0.386327 -0.001140 1.796113
1.909824 0.371339 -0.034741 2.210008
2.676003 0.377338 -0.028960 1.405845
5.014552 0.384110 -0.013791 1.250838
-3.463814 1.152058 -0.019226 0.933835
-1.926243 1.154486 0.004033 2.244241
-1.161077 1.186884 -0.003205 1.130172
-0.387808 1.168589 0.007392 2.515356
0.401296 1.144021 0.007903 0.854453
1.923606 1.170099 -0.011331 1.605607
4.998979 1.151975 0.011522 1.730585
-4.989679 1.942519 0.000391 0.934473
-4.228958 1.935066 0.013169 1.193235
-3.445631 1.940632 -0.008586 0.956081
-2.679527 1.911040 0.007626 2.132488
-1.947801 1.927407 -0.001928 2.606526
-1.156317 1.929681 -0.017976 1.873605
-0.403728 1.926739 0.010590 2.412145
1.148167 1.934656 0.016595 0.922423
-4.217026 2.728716 -0.014035 0.882802
-2.677814 2.689379 -0.003845 1.494334
-1.144177 2.705006 -0.008874 2.799804
0.376253 2.698220 0.000669 1.759154
1.930436 2.675178 0.013915 2.465562
2.695553 2.690387 0.002606 1.054182
3.482038 2.678539 0.004464 0.939904
4.208713 2.692812 0.000506 1.808562
-3.459132 3.472406 0.008211 1.634016
-1.934962 3.459203 -0.015311 0.991039
-1.166557 3.466193 0.003158 0.978306
-0.368849 3.484538 0.013548 1.718045
2.731303 3.458277 -0.030568 1.476301
3.442742 3.461554 -0.001194 1.535478
-1.151995 4.242262 -0.008148 1.947965
-0.387815 4.222821 0.030128 0.962623
0.396596 4.226538 0.000699 2.455228
1.159733 4.230590 0.032544 1.030602
1.928302 4.214786 0.006506 1.903885
2.684976 4.241651 0.001657 0.941365
4.996737 4.226971 -0.000308 1.433383
-4.997620 4.992494 0.003465 2.025897
-1.927526 4.999501 0.004879 2.855689
-1.146894 5.010801 -0.003063 1.577597
1.940319 4.979704 -0.001181 1.404708
4.211062 5.007031 0.007204 1.541510
5.034138 5.010847 0.034784 0.891500
-4.515759 4.982533 -0.001554 1.554308
-3.906796 4.997633 0.017262 2.194834
-2.631350 4.993405 0.029658 2.333211
-2.317028 4.993650 -0.009152 2.664267
-0.452166 4.991238 -0.002345 1.420074
0.145363 5.010553 -0.026825 2.438069
1.068235 5.017328 0.000353 2.835419
1.405464 4.990757 0.009449 0.976137
1.704258 4.998292 0.001997 1.932967
2.339023 5.000033 -0.005634 2.435843
2.631425 4.996392 0.022448 1.167981
3.251338 5.003684 -0.029495 1.134153
3.556794 5.005303 0.006062 1.028417
3.876767 4.997779 -0.001051 1.447583
4.184379 5.010391 0.005761 1.258027
4.508875 5.016224 -0.030473 1.290251
-4.489783 5.002056 0.329544 1.211680
-4.192634 5.012612 0.287245 0.900808
-3.905336 4.987282 0.304262 1.323361
-3.571087 5.008160 0.309173 1.231201
-2.640005 5.008192 0.276453 0.971993
-2.313939 4.987508 0.285935 1.690829
-1.114845 4.997409 0.300330 1.573409
-0.751822 4.980084 0.304632 2.577860
-0.462069 5.015845 0.311897 0.978649
-0.140554 4.999705 0.283787 1.399000
0.164808 5.013419 0.295518 1.024181
0.446409 5.010239 0.310913 1.883149
0.787550 4.991933 0.306576 1.335626
1.098127 5.000024 0.306194 1.406136
2.017213 5.018147 0.273012 0.936091
3.290921 4.994127 0.333788 1.305674
3.558720 5.030894 0.326925 1.585353
4.198989 5.000190 0.304482 0.890971
-4.499449 5.006759 0.614580 1.920585
-3.254550 5.004972 0.600112 1.385121
-2.948290 4.993655 0.611776 2.744334
-2.635692 5.013487 0.636835 1.068677
-2.016386 4.989020 0.607057 1.029631
-1.068013 4.991302 0.603826 2.043101
-0.448744 5.015409 0.601930 1.356683
0.173762 5.025307 0.597743 2.026508
0.794409 4.988650 0.622220 1.435429
1.696090 4.994032 0.619677 2.363777
2.027097 5.012283 0.613927 1.252643
2.638104 5.003528 0.594449 1.568285
3.256988 4.970609 0.629776 2.058307
3.559208 5.014880 0.579776 1.171543
4.189287 4.996232 0.610030 0.900976
4.505116 4.992465 0.577726 1.297656
-4.507714 5.000927 0.899766 1.623733
-3.276243 5.031371 0.914966 2.366236
-2.620186 4.997858 0.883877 2.347010
-2.302353 5.009587 0.913159 1.404954
-1.709545 4.984726 0.890363 1.483390
-0.458533 5.013314 0.868880 1.726396
0.142170 5.021172 0.899632 1.147300
1.392705 4.992674 0.902542 1.369931
2.019714 5.007047 0.909206 1.257558
3.268868 5.001669 0.909760 0.893010
3.898930 5.003356 0.891537 1.465643
4.176413 5.012350 0.894118 1.830133
4.513800 5.001073 0.904432 1.637947
-4.511214 5.024153 1.235748 1.982647
-3.558159 4.998660 1.218962 1.002151
-3.268217 5.001397 1.198309 1.209808
-2.638285 5.006129 1.197359 1.601332
-2.327212 4.985764 1.200688 1.228201
-0.768389 4.982240 1.157924 1.903715
-0.459974 4.983008 1.207776 1.188213
-0.151068 4.982935 1.211830 1.884016
0.177144 4.984250 1.182433 2.028745
0.456521 5.018009 1.199456 2.336288
1.103010 4.987519 1.186148 2.369178
2.335050 4.991225 1.207807 2.226555
2.659920 4.982731 1.197393 1.392037
2.950683 5.005960 1.211644 1.790810
3.260523 5.007169 1.177035 2.307324
3.561182 4.998240 1.200606 1.184308
3.862266 5.042518 1.202411 1.559041
4.173443 4.982396 1.210781 2.433418
4.492920 5.005533 1.217009 1.629966
-4.199928 5.029976 1.493626 1.117686
-3.894391 5.011169 1.495795 1.933518
-3.580387 4.978091 1.497048 1.818088
-1.991944 5.005204 1.493079 1.755490
-1.032958 5.008669 1.496675 1.546815
-0.787958 5.023769 1.518466 1.743618
-0.447133 5.013886 1.499755 1.155513
-0.124907 4.979382 1.478575 2.044843
1.085175 4.995325 1.504606 1.013484
1.978651 5.004208 1.491925 1.881268
2.335507 5.023266 1.482707 2.889785
2.985244 5.002454 1.508845 1.971917
4.186572 4.983462 1.514614 0.928544
-4.234325 -5.003450 -0.013530 1.059811
-3.580696 -5.010416 -0.015902 2.207512
-2.932133 -5.012418 0.002280 1.078633
-2.646271 -5.025137 0.021945 1.424485
-1.379925 -5.034181 -0.013203 1.359765
-1.119900 -5.011316 0.002926 2.812112
0.156800 -5.009727 -0.000157 1.120964
0.460944 -5.000202 0.019146 1.124766
0.774708 -4.966335 0.000139 1.772932
2.352932 -4.987852 -0.020287 1.333541
2.661540 -4.998870 -0.013781 1.265147
2.932556 -5.011774 0.009504 1.147101
3.571444 -5.008677 -0.002726 2.796893
4.509876 -4.996784 -0.008964 1.318049
-4.183530 -5.013840 0.299102 1.330840
-3.894668 -4.990086 0.317192 1.420853
-3.567857 -4.980556 0.310950 1.589430
-2.601528 -5.001843 0.270348 1.994393
-2.000934 -4.999360 0.294797 0.851105
-1.709932 -5.010405 0.285009 2.445816
-0.451472 -4.999353 0.306716 1.427156
-0.157348 -4.997189 0.303964 1.207625
0.772223 -4.988083 0.296558 2.465182
2.950412 -4.998961 0.306343 0.894701
3.906879 -4.983111 0.293210 1.870027
4.192204 -4.982061 0.328111 2.175979
-4.182365 -5.003247 0.603255 2.801091
-3.880237 -5.004514 0.618205 1.095249
-2.917428 -5.009673 0.603607 1.789898
-2.640016 -4.999817 0.599176 2.674917
-2.027429 -4.975575 0.600603 2.265779
-1.397179 -4.996961 0.599004 1.603707
-0.784302 -4.989680 0.582438 1.138544
0.462908 -5.014393 0.594744 2.941495
0.787493 -4.991319 0.607841 1.714151
1.097182 -5.017604 0.634602 0.898028
1.390333 -5.004739 0.619865 0.865346
1.716656 -4.960956 0.620173 2.526873
2.004588 -4.987223 0.607171 1.372225
2.653743 -4.993217 0.601979 1.044138
3.261422 -4.987127 0.591095 1.580871
4.211988 -4.982886 0.616112 0.872513
-4.202184 -4.985609 0.867028 1.992668
-3.887399 -5.001721 0.893905 0.902389
-3.591704 -5.008139 0.917352 1.692616
-3.278729 -4.990155 0.904405 2.842474
-2.967320 -5.007410 0.914503 2.912192
-2.659463 -5.004481 0.914087 1.662924
-1.394078 -5.013952 0.894232 1.815102
-0.757900 -4.993932 0.904624 2.391995
-0.470885 -5.009303 0.895687 1.307763
0.438174 -4.990277 0.926030 1.625584
1.101824 -4.989771 0.907050 1.390975
1.404600 -5.003141 0.885661 1.614765
2.033633 -5.000612 0.906793 1.676530
2.330366 -5.001289 0.924795 1.053645
2.940265 -5.008347 0.904736 2.164166
3.558480 -5.018242 0.913183 1.246816
3.906300 -5.006378 0.881025 1.085648
-3.578904 -5.009270 1.208638 2.188138
-3.253159 -4.974958 1.205402 2.816934
-2.962584 -5.001425 1.213638 0.947228
-2.627867 -5.008809 1.199162 1.342986
-2.338671 -5.024538 1.217991 1.881652
-0.775123 -4.995845 1.189165 1.135511
2.344932 -4.991233 1.219946 1.777845
2.951114 -4.980412 1.189126 1.636732
3.586214 -4.993008 1.217596 1.514153
4.230153 -4.944388 1.198484 1.867540
-4.505865 -5.009423 1.489202 1.140958
-3.876435 -5.016539 1.505439 1.221393
-3.254886 -5.011025 1.537222 1.576717
-2.965327 -5.007424 1.504548 0.903036
-1.996576 -5.009903 1.491447 1.106167
-1.733057 -5.002659 1.498852 0.963705
-1.410403 -5.012577 1.502113 2.288038
-0.461840 -4.993698 1.514111 1.791317
-0.133962 -5.016333 1.508074 1.989662
0.456737 -5.007783 1.502095 0.866795
2.020127 -5.010487 1.476820 1.419909
2.318358 -4.992291 1.498732 1.168308
2.637325 -5.012275 1.487465 0.904450
3.592822 -5.013183 1.503724 1.556873
4.211816 -5.005701 1.526202 2.240132
4.500192 -4.999048 1.505679 0.889711
